<?xml version="1.0" standalone="no"?>
<!DOCTYPE svg PUBLIC "-//W3C//DTD SVG 20010904//EN"
 "http://www.w3.org/TR/2001/REC-SVG-20010904/DTD/svg10.dtd">
<svg version="1.0" xmlns="http://www.w3.org/2000/svg"
 width="300.000000pt" height="98.000000pt" viewBox="0 0 300.000000 98.000000"
 preserveAspectRatio="xMidYMid meet">
<metadata>
Created by potrace 1.10, written by Peter Selinger 2001-2011
</metadata>
<g transform="translate(0.000000,98.000000) scale(0.100000,-0.100000)"
fill="#000000" stroke="none">
<path d="M554 749 c-28 -3 -60 -11 -72 -18 -11 -6 -40 -11 -65 -11 -103 0
-206 -59 -221 -128 -5 -21 -17 -33 -46 -46 -85 -37 -119 -132 -71 -196 25 -34
27 -72 6 -90 -8 -7 -15 -16 -15 -21 0 -15 88 -10 127 6 19 8 53 15 75 15 73 0
128 21 174 65 24 23 44 51 44 62 0 15 16 30 55 52 33 19 61 43 71 63 21 40 14
107 -15 144 -23 29 -21 60 7 82 25 19 2 29 -54 21z m9 -52 c-4 -25 1 -42 22
-73 32 -46 29 -93 -7 -131 -28 -30 -81 -59 -85 -47 -25 73 -112 125 -213 125
-69 1 -75 10 -35 57 32 39 96 64 165 66 30 0 61 5 68 10 15 9 60 24 79 25 8 1
10 -10 6 -32z m-363 -174 c0 -26 72 -87 119 -102 24 -7 67 -12 97 -12 62 0 68
-11 29 -58 -32 -37 -97 -62 -167 -65 -29 -1 -66 -8 -83 -15 -16 -7 -43 -15
-59 -18 -26 -6 -27 -4 -17 15 16 31 14 47 -14 88 -31 45 -32 83 -3 119 20 26
74 65 91 65 4 0 7 -7 7 -17z"/>
<path d="M1202 748 c-17 -17 -17 -459 0 -476 16 -16 53 -15 66 1 7 7 13 66 14
132 l3 120 28 9 c54 19 61 3 67 -134 5 -134 12 -149 63 -136 l27 6 0 131 c0
143 -9 176 -55 197 -34 15 -108 15 -123 0 -9 -9 -12 5 -12 63 0 79 -9 99 -45
99 -12 0 -26 -5 -33 -12z m61 -156 c22 -24 21 -28 -3 -59 -17 -22 -20 -41 -20
-126 0 -55 -3 -98 -6 -95 -6 7 -7 86 -4 273 2 86 5 107 9 73 4 -26 14 -55 24
-66z m157 -51 c5 -11 9 -64 8 -118 l-2 -98 -5 95 c-3 52 -12 105 -19 118 -7
13 -9 22 -3 22 6 0 15 -9 21 -19z"/>
<path d="M889 730 c-61 -32 -79 -83 -79 -226 0 -105 3 -125 23 -164 29 -56 73
-80 150 -80 62 0 130 26 140 55 17 42 -32 67 -81 41 -42 -22 -88 -20 -111 3
-31 31 -41 206 -16 272 14 36 82 49 125 24 35 -20 68 -18 80 5 36 68 -136 120
-231 70z m11 -66 l-32 -37 4 -132 3 -132 30 -27 c23 -21 26 -26 11 -24 -10 2
-28 16 -40 31 -18 24 -21 45 -24 148 -4 129 4 168 42 194 36 26 39 16 6 -21z"/>
<path d="M2172 738 c-8 -8 -12 -63 -12 -182 0 -149 2 -175 20 -211 30 -61 83
-88 166 -83 73 5 109 25 136 79 15 28 18 62 18 210 0 123 -4 179 -12 187 -16
16 -53 15 -66 -1 -6 -7 -12 -84 -14 -186 -3 -168 -4 -173 -27 -192 -30 -25
-62 -24 -95 2 l-26 20 0 169 c0 140 -3 171 -16 184 -18 19 -55 21 -72 4z m50
-209 l3 -161 37 -34 c42 -38 41 -41 -3 -18 -49 25 -59 64 -59 229 0 83 4 145
9 145 6 0 11 -70 13 -161z m239 60 c3 -196 1 -215 -27 -248 -14 -17 -33 -31
-42 -31 -12 0 -9 7 12 29 37 38 45 82 46 230 0 144 9 160 11 20z"/>
<path d="M1932 698 c-8 -8 -12 -59 -12 -177 0 -182 10 -223 60 -248 36 -19
120 -12 134 9 17 27 -4 52 -47 56 -48 4 -59 25 -55 110 3 66 3 67 30 64 53 -6
88 34 56 66 -7 7 -29 12 -50 12 l-37 0 -3 58 c-3 55 -4 57 -33 60 -17 2 -36
-3 -43 -10z m73 -128 c16 -17 15 -20 -4 -39 -18 -18 -21 -33 -21 -98 0 -65 3
-80 22 -100 18 -19 19 -23 5 -23 -42 0 -51 52 -47 275 l1 80 13 -38 c8 -21 22
-47 31 -57z"/>
<path d="M1600 597 c-18 -9 -25 -21 -25 -42 0 -36 21 -43 75 -25 48 16 80 1
80 -38 0 -26 -2 -27 -44 -24 -99 8 -157 -42 -142 -121 10 -55 55 -87 120 -87
29 0 61 6 72 14 16 13 21 13 36 0 9 -9 30 -14 50 -12 28 2 34 7 36 31 2 19 -1
27 -12 27 -9 0 -16 3 -16 8 -3 196 -14 243 -61 268 -34 17 -135 18 -169 1z
m176 -69 c7 -23 23 -210 18 -216 -1 -2 -12 -1 -23 3 -17 5 -19 10 -10 31 7 19
5 35 -7 59 -14 31 -14 36 1 58 16 25 9 67 -14 82 -6 3 -11 11 -11 16 0 18 38
-10 46 -33z m-174 -143 c-2 -14 3 -36 12 -50 18 -28 6 -34 -18 -9 -19 18 -20
38 -6 65 14 26 18 24 12 -6z m116 16 c23 -14 10 -55 -21 -65 -49 -18 -86 24
-52 58 18 17 52 21 73 7z"/>
<path d="M2678 596 c-16 -9 -30 -11 -33 -5 -9 14 -51 11 -65 -6 -8 -9 -9 -21
-4 -32 5 -10 11 -110 14 -223 l5 -205 40 0 40 0 3 71 3 71 47 -4 c104 -10 142
35 142 170 0 94 -13 134 -52 161 -28 20 -104 21 -140 2z m132 -53 c20 -25 21
-37 18 -121 -3 -68 -8 -96 -18 -102 -27 -18 -30 -10 -10 29 28 52 23 148 -9
191 -27 38 -10 40 19 3z m-148 7 c6 0 5 -7 -3 -16 -28 -34 -17 -214 12 -214
14 0 10 -22 -8 -42 -9 -10 -17 -34 -18 -53 -1 -20 -5 -38 -7 -41 -10 -10 -17
75 -18 225 0 137 1 153 16 147 8 -3 20 -6 26 -6z m96 -26 c19 -13 22 -24 22
-85 0 -57 -4 -73 -21 -90 -11 -11 -27 -18 -36 -15 -8 3 -21 6 -29 6 -11 0 -14
19 -14 90 0 85 1 91 23 100 30 12 30 12 55 -6z"/>
</g>
</svg>
